<?xml version="1.0" standalone="no"?>
<!DOCTYPE svg PUBLIC "-//W3C//DTD SVG 20010904//EN"
 "http://www.w3.org/TR/2001/REC-SVG-20010904/DTD/svg10.dtd">
<svg version="1.0" xmlns="http://www.w3.org/2000/svg"
 width="300.000000pt" height="300.000000pt" viewBox="0 0 300.000000 300.000000"
 preserveAspectRatio="xMidYMid meet">
<metadata>
Created by potrace 1.10, written by Peter Selinger 2001-2011
</metadata>
<g transform="translate(0.000000,300.000000) scale(0.100000,-0.100000)"
fill="#000000" stroke="none">
<path d="M1185 2219 c-122 -16 -204 -58 -292 -152 -62 -67 -143 -210 -179
-317 -27 -81 -24 -226 6 -304 39 -102 124 -176 203 -176 30 0 9 19 -30 26 -54
10 -125 84 -152 159 -19 51 -22 76 -19 170 l3 110 60 120 c74 148 77 152 117
196 117 126 249 168 474 150 67 -5 172 -6 240 -1 67 4 153 5 191 0 119 -13
233 -76 307 -170 59 -74 142 -239 157 -309 18 -84 13 -193 -11 -266 -25 -77
-96 -150 -154 -160 -43 -9 -58 -25 -21 -25 100 0 194 115 215 262 16 111 0
201 -59 324 -58 122 -85 163 -151 230 -102 104 -210 140 -395 134 -179 -6
-260 -6 -360 1 -49 3 -117 2 -150 -2z"/>
<path d="M1189 2016 c-1 -3 -2 -12 -3 -18 -1 -8 -16 -13 -39 -12 -42 1 -45 -4
-17 -29 24 -20 26 -35 5 -43 -24 -9 -18 -19 18 -29 22 -7 33 -17 35 -32 4 -28
39 -30 108 -7 44 15 48 15 73 -4 25 -18 103 -113 98 -119 -2 -1 -23 8 -48 20
-45 22 -45 22 -257 18 -105 -2 -183 -60 -219 -165 -40 -116 -8 -325 49 -318
44 6 229 -19 296 -40 37 -11 93 -33 124 -49 32 -16 68 -29 82 -29 13 0 57 16
97 35 103 48 211 74 337 79 l107 4 19 49 c23 57 27 195 8 260 -14 47 -63 116
-104 146 -29 22 -109 31 -258 32 -58 0 -85 -5 -119 -22 -25 -12 -46 -21 -48
-20 -5 6 73 101 98 119 25 19 29 19 73 4 68 -23 104 -21 108 6 2 15 13 26 33
32 41 14 41 14 19 30 -19 14 -19 15 4 38 30 32 28 35 -15 34 -23 -1 -38 4 -39
12 -1 6 -2 15 -3 18 0 3 -13 -4 -27 -15 -32 -25 -50 -27 -62 -5 -7 13 -14 10
-40 -21 -19 -21 -32 -47 -32 -63 0 -20 -13 -38 -49 -69 -27 -23 -60 -65 -74
-93 l-25 -50 -31 54 c-16 30 -51 71 -76 92 -33 28 -45 45 -45 66 0 16 -13 42
-32 63 -26 31 -33 34 -40 21 -12 -22 -30 -20 -62 5 -14 11 -27 18 -27 15z
m105 -72 c2 -6 -4 -18 -15 -27 -10 -9 -16 -23 -13 -30 10 -26 -25 -27 -56 -1
-28 24 -38 52 -24 67 11 10 103 3 108 -9z m526 -5 c0 -30 -38 -69 -67 -69 -18
0 -23 5 -23 25 0 14 -7 28 -15 31 -29 12 3 30 55 33 46 2 50 0 50 -20z m-495
-40 c4 -6 5 -12 3 -14 -7 -7 -48 7 -48 16 0 13 37 11 45 -2z m395 2 c0 -9 -41
-23 -48 -16 -2 2 -1 8 3 14 8 13 45 15 45 2z m-292 -187 c33 -14 56 -32 59
-44 3 -11 9 -20 13 -20 4 0 10 9 13 20 7 29 105 71 164 72 84 1 217 -14 246
-29 74 -37 122 -158 115 -287 -6 -99 -22 -139 -52 -130 -74 24 -318 -24 -420
-82 -53 -31 -70 -30 -153 7 -125 56 -338 97 -394 77 -15 -6 -25 -4 -31 4 -30
48 -37 183 -13 265 18 62 65 127 105 148 18 9 53 16 83 15 29 0 68 3 87 9 48
13 115 4 178 -25z"/>
<path d="M1238 1661 c-36 -12 -88 -43 -88 -54 0 -5 -12 1 -26 12 -27 22 -84
29 -84 11 0 -5 11 -10 24 -10 13 0 34 -8 46 -18 20 -16 21 -21 11 -41 -7 -13
-9 -26 -5 -29 4 -4 9 0 12 8 3 8 19 29 37 47 62 62 192 78 295 37 37 -15 43
-15 87 3 68 26 184 23 240 -5 38 -20 76 -57 86 -85 2 -7 7 -9 11 -5 4 3 2 16
-5 29 -10 20 -9 25 11 41 12 10 33 18 46 18 13 0 24 5 24 10 0 15 -41 12 -73
-5 -27 -14 -32 -13 -75 13 -42 24 -56 27 -142 27 -80 0 -101 -3 -132 -22 l-38
-22 -36 21 c-28 17 -57 22 -118 25 -45 1 -93 -1 -108 -6z"/>
<path d="M1093 1425 c0 -33 2 -45 4 -27 2 18 2 45 0 60 -2 15 -4 0 -4 -33z"/>
<path d="M1901 1427 c-1 -36 3 -56 9 -52 12 7 12 49 0 85 -6 19 -8 11 -9 -33z"/>
<path d="M820 940 c0 -38 4 -50 15 -50 8 0 15 9 15 20 0 13 7 20 20 20 13 0
20 -7 20 -20 0 -11 7 -20 15 -20 11 0 15 12 15 50 0 38 -4 50 -15 50 -8 0 -15
-9 -15 -20 0 -13 -7 -20 -20 -20 -13 0 -20 7 -20 20 0 11 -7 20 -15 20 -11 0
-15 -12 -15 -50z"/>
<path d="M953 940 c-22 -51 -18 -59 17 -38 16 10 24 10 40 0 35 -22 39 -13 17
38 -28 64 -47 64 -74 0z"/>
<path d="M1060 940 c0 -38 4 -50 15 -50 8 0 15 6 15 14 0 9 12 16 27 18 57 6
36 68 -23 68 l-34 0 0 -50z"/>
<path d="M1170 940 c0 -38 4 -50 15 -50 8 0 15 7 15 15 0 9 9 15 24 15 16 0
27 7 31 20 9 30 -12 50 -51 50 l-34 0 0 -50z"/>
<path d="M1270 983 c0 -5 7 -17 15 -27 8 -11 15 -30 15 -43 0 -14 6 -23 15
-23 8 0 15 8 15 18 0 9 9 32 20 50 16 25 17 32 5 32 -8 0 -20 -10 -26 -22
l-12 -23 -10 23 c-9 20 -37 32 -37 15z"/>
<path d="M1430 940 c0 -38 4 -50 15 -50 8 0 15 7 15 15 0 8 9 15 20 15 11 0
20 7 20 16 0 10 -7 14 -20 12 -10 -2 -20 2 -22 7 -2 6 9 11 25 13 42 5 32 22
-13 22 l-40 0 0 -50z"/>
<path d="M1532 945 c-26 -54 -26 -55 -7 -55 8 0 15 5 15 10 0 6 11 10 25 10
14 0 25 -4 25 -10 0 -5 7 -10 15 -10 19 0 19 -1 -5 54 -10 25 -25 46 -33 46
-7 0 -23 -20 -35 -45z"/>
<path d="M1640 940 c0 -37 4 -50 15 -50 9 0 12 6 9 15 -4 8 -1 15 5 15 7 0 14
-7 17 -15 4 -8 15 -15 26 -15 17 0 18 3 8 15 -10 12 -10 18 -1 29 21 25 -4 56
-44 56 l-35 0 0 -50z m58 13 c2 -8 -5 -13 -17 -13 -12 0 -21 6 -21 16 0 18 31
15 38 -3z"/>
<path d="M1750 940 c0 -27 5 -50 10 -50 6 0 10 12 10 28 l0 27 18 -23 18 -24
17 24 16 23 0 -27 c1 -50 21 -29 21 22 0 57 -12 63 -38 20 l-18 -29 -18 29
c-25 43 -36 37 -36 -20z"/>
<path d="M1890 940 l0 -50 40 0 c22 0 40 5 40 10 0 6 -13 10 -30 10 -16 0 -30
5 -30 10 0 6 11 10 25 10 14 0 25 5 25 10 0 6 -11 10 -25 10 -14 0 -25 5 -25
10 0 6 14 10 30 10 17 0 30 5 30 10 0 6 -18 10 -40 10 l-40 0 0 -50z"/>
<path d="M1990 940 c0 -38 4 -50 15 -50 8 0 15 7 15 17 0 15 1 15 18 0 24 -22
50 -24 33 -3 -9 11 -9 19 0 34 18 29 -4 52 -47 52 l-34 0 0 -50z"/>
<path d="M2100 975 c-16 -19 3 -45 31 -45 11 0 19 -5 19 -11 0 -6 -11 -9 -25
-7 -13 2 -25 -1 -27 -7 -5 -17 58 -17 72 -1 16 20 -2 46 -31 46 -11 0 -19 5
-19 11 0 7 10 9 25 7 17 -4 25 -1 25 8 0 19 -54 18 -70 -1z"/>
<path d="M1144 825 c-11 -27 25 -50 40 -26 4 5 -3 7 -14 4 -14 -4 -20 0 -20
12 0 12 6 16 20 12 11 -3 20 -1 20 4 0 15 -40 10 -46 -6z"/>
<path d="M1223 824 c-3 -8 -1 -20 5 -26 13 -13 42 -3 41 14 0 10 -2 10 -6 1
-7 -18 -33 -16 -33 1 0 8 8 17 18 19 16 4 16 5 -1 6 -10 0 -20 -6 -24 -15z"/>
<path d="M1297 827 c-8 -21 8 -39 29 -35 27 5 25 42 -2 46 -12 2 -24 -3 -27
-11z"/>
<path d="M1484 815 c1 -29 41 -27 42 3 1 18 1 19 -3 2 -5 -25 -30 -26 -36 -2
-3 13 -4 12 -3 -3z"/>
<path d="M1560 818 c0 -21 5 -28 18 -28 25 0 31 7 25 31 -5 16 -8 18 -14 7 -7
-11 -11 -10 -19 2 -8 12 -10 9 -10 -12z"/>
<path d="M1860 815 c0 -20 5 -25 23 -24 19 1 19 2 3 6 -15 4 -16 7 -5 14 12 7
12 9 -1 10 -10 0 -8 3 5 9 19 8 19 9 -2 9 -18 1 -23 -5 -23 -24z"/>
</g>
</svg>
