<?xml version="1.0" standalone="no"?>
<!DOCTYPE svg PUBLIC "-//W3C//DTD SVG 20010904//EN"
 "http://www.w3.org/TR/2001/REC-SVG-20010904/DTD/svg10.dtd">
<svg version="1.0" xmlns="http://www.w3.org/2000/svg"
 width="300.000000pt" height="300.000000pt" viewBox="0 0 300.000000 300.000000"
 preserveAspectRatio="xMidYMid meet">
<metadata>
Created by potrace 1.10, written by Peter Selinger 2001-2011
</metadata>
<g transform="translate(0.000000,300.000000) scale(0.100000,-0.100000)"
fill="#000000" stroke="none">
<path d="M1396 2297 c-23 -17 -12 -42 35 -81 23 -20 41 -26 78 -26 60 0 88 18
72 47 -23 45 -70 73 -120 73 -26 0 -55 -6 -65 -13z m110 -41 c10 -8 16 -18 11
-22 -10 -10 -59 8 -65 24 -5 17 30 15 54 -2z"/>
<path d="M1600 2294 c1 -35 38 -101 70 -124 17 -12 52 -25 77 -28 l46 -5 -6
39 c-12 70 -64 117 -145 130 -37 6 -42 4 -42 -12z m118 -71 c24 -24 25 -28 9
-31 -20 -4 -43 12 -58 40 -15 29 17 23 49 -9z"/>
<path d="M1193 2265 c-38 -16 -38 -17 -17 -51 22 -33 68 -56 111 -56 36 0 93
19 93 32 0 18 -46 64 -76 76 -42 17 -70 17 -111 -1z m105 -52 c6 -19 -43 -16
-59 3 -11 14 -9 15 21 12 18 -2 35 -9 38 -15z"/>
<path d="M1827 2253 c-37 -66 1 -161 81 -203 30 -15 34 -10 39 47 3 34 -1 58
-14 82 -19 34 -97 89 -106 74z m73 -108 c11 -29 1 -39 -21 -19 -10 9 -19 28
-19 42 0 21 2 23 16 11 9 -7 20 -22 24 -34z"/>
<path d="M1014 2161 c-46 -28 -48 -36 -14 -65 44 -36 88 -42 143 -18 57 25 63
36 35 62 -47 44 -112 52 -164 21z m90 -27 c28 -11 17 -24 -19 -24 -33 0 -43 8
-28 23 8 9 27 9 47 1z"/>
<path d="M1375 2136 c-69 -16 -185 -64 -185 -77 0 -12 7 -11 39 5 15 8 64 24
108 35 382 98 753 -186 753 -574 0 -52 -5 -117 -11 -145 l-11 -50 -45 0 -46 0
6 40 c5 39 4 41 -59 91 -51 42 -77 74 -135 172 l-72 120 -68 -6 c-62 -5 -69
-4 -69 12 0 33 -33 51 -91 51 -58 -1 -99 -23 -99 -55 0 -14 -6 -16 -26 -11
-15 4 -51 4 -81 0 l-53 -6 -65 -127 c-35 -69 -60 -127 -55 -129 6 -2 10 -34
10 -71 l0 -68 -77 -7 c-124 -10 -121 -11 -132 32 -5 20 -13 65 -17 100 -4 34
-11 62 -15 62 -12 0 -11 -31 6 -123 40 -227 219 -424 445 -491 85 -26 222 -31
310 -12 221 46 404 213 473 431 18 57 22 93 22 190 -1 104 -5 130 -27 193 -36
100 -82 173 -154 246 -119 118 -253 177 -419 182 -62 2 -123 -2 -160 -10z
m135 -347 c0 -6 7 -8 16 -5 28 11 44 -13 44 -65 l0 -49 -36 0 -37 0 6 55 6 55
-40 0 c-24 0 -38 4 -34 10 8 14 75 13 75 -1z m-21 -61 c0 -33 0 -33 -16 -10
-9 12 -26 22 -39 22 -13 0 -24 5 -24 10 0 6 18 10 40 10 39 0 40 -1 39 -32z
m-19 -33 c19 -31 26 -35 66 -35 44 0 44 0 44 35 l0 36 67 -3 67 -3 58 -95 c31
-52 58 -98 58 -103 0 -4 -102 -6 -226 -5 l-226 3 -40 70 c-22 39 -49 85 -60
103 l-20 32 95 0 95 0 22 -35z m-163 -91 c45 -82 72 -119 118 -160 l60 -53 -3
-56 c-3 -48 -6 -55 -20 -50 -10 4 -52 14 -94 23 l-78 17 0 52 0 53 -45 0 -45
0 0 -50 c0 -52 -4 -55 -47 -44 -32 9 -29 34 5 35 l27 1 -25 7 c-18 4 -26 14
-28 34 -3 24 0 27 30 28 l33 2 -30 6 c-16 3 -31 11 -32 18 -2 11 104 243 112
243 2 0 30 -48 62 -106z m591 -141 c26 -20 51 -41 56 -45 6 -4 -96 -8 -225 -8
l-234 1 -48 44 -49 45 227 0 227 0 46 -37z m62 -106 l0 -34 -117 -6 c-114 -6
-293 -30 -327 -43 -14 -5 -16 3 -16 55 l0 61 230 0 230 0 0 -33z m-695 -47
c38 -6 100 -18 138 -27 l69 -17 -73 -24 -72 -24 -86 26 c-96 29 -224 55 -279
57 l-37 1 30 8 c45 11 230 11 310 0z m657 -31 c-78 -16 -202 -50 -275 -75 -73
-26 -143 -47 -157 -47 -14 0 -52 12 -84 26 l-59 25 69 21 c142 43 389 78 569
79 l80 0 -143 -29z m-886 -4 c118 -20 240 -56 348 -101 l87 -36 -65 -30 -65
-31 -66 42 c-78 49 -244 133 -297 150 -21 7 -38 14 -38 17 0 5 -4 6 96 -11z
m984 -9 c-125 -47 -333 -172 -479 -290 l-83 -67 -73 14 c-41 9 -95 25 -122 37
-46 20 -47 22 -28 36 51 39 303 154 420 192 141 46 322 91 370 91 l30 0 -35
-13z m-945 -59 c61 -30 141 -73 179 -97 59 -37 66 -44 50 -53 -11 -5 -40 -22
-66 -38 l-47 -28 -63 49 c-62 48 -115 109 -158 183 -12 20 -18 37 -13 37 4 0
58 -24 118 -53z m955 37 c0 -3 -18 -31 -39 -63 -55 -81 -149 -163 -234 -205
-69 -33 -218 -71 -252 -64 -33 6 232 192 400 280 108 56 125 64 125 52z"/>
<path d="M1510 1715 c0 -30 3 -35 23 -35 20 0 23 5 23 35 0 30 -3 35 -23 35
-20 0 -23 -5 -23 -35z"/>
<path d="M1230 1640 c0 -22 5 -40 10 -40 6 0 10 18 10 40 0 22 -4 40 -10 40
-5 0 -10 -18 -10 -40z"/>
<path d="M1200 1515 l0 -65 45 0 45 0 0 65 0 65 -45 0 -45 0 0 -65z"/>
<path d="M1343 1393 c20 -2 54 -2 75 0 20 2 3 4 -38 4 -41 0 -58 -2 -37 -4z"/>
<path d="M1348 1373 c23 -2 61 -2 85 0 23 2 4 4 -43 4 -47 0 -66 -2 -42 -4z"/>
<path d="M1348 1353 c23 -2 61 -2 85 0 23 2 4 4 -43 4 -47 0 -66 -2 -42 -4z"/>
<path d="M1363 1333 c20 -2 54 -2 75 0 20 2 3 4 -38 4 -41 0 -58 -2 -37 -4z"/>
<path d="M1623 1353 c59 -2 155 -2 215 0 59 1 10 3 -108 3 -118 0 -167 -2
-107 -3z"/>
<path d="M1593 1333 c48 -2 125 -2 170 0 45 1 6 3 -88 3 -93 0 -130 -2 -82 -3z"/>
<path d="M1548 1313 c17 -2 47 -2 65 0 17 2 3 4 -33 4 -36 0 -50 -2 -32 -4z"/>
<path d="M2006 2116 c-19 -39 -21 -108 -5 -139 14 -28 60 -77 71 -77 14 0 38
66 38 102 0 41 -35 112 -65 132 -22 15 -24 14 -39 -18z m61 -101 c5 -30 3 -37
-8 -33 -18 6 -34 51 -25 74 10 25 25 6 33 -41z"/>
<path d="M1410 2090 c-41 -22 -67 -61 -76 -118 -6 -38 -5 -42 15 -42 61 0 122
50 139 113 19 68 -8 85 -78 47z m14 -81 c-9 -10 -23 -19 -31 -19 -11 0 -11 5
2 29 8 16 20 31 27 34 20 6 22 -22 2 -44z"/>
<path d="M1233 2051 c-51 -23 -74 -57 -81 -116 -5 -53 6 -57 75 -26 51 23 74
57 81 116 5 53 -6 57 -75 26z m27 -44 c0 -20 -30 -57 -46 -57 -20 0 -17 20 8
47 24 26 38 29 38 10z"/>
<path d="M1571 2043 c-37 -19 -71 -66 -71 -100 0 -21 5 -23 50 -23 41 0 55 5
84 30 39 34 57 87 35 101 -22 13 -61 10 -98 -8z m49 -42 c0 -11 -39 -41 -52
-41 -15 0 -8 29 10 39 22 13 42 14 42 2z"/>
<path d="M1700 1972 c-19 -11 -45 -37 -58 -60 l-23 -41 36 -7 c77 -14 137 13
171 79 14 26 13 28 -11 37 -39 15 -76 12 -115 -8z m51 -52 c-24 -21 -61 -27
-61 -10 0 14 32 29 60 29 l25 0 -24 -19z"/>
<path d="M1795 1864 c-29 -15 -64 -51 -65 -67 0 -13 66 -37 100 -37 40 0 82
22 110 57 l21 27 -33 18 c-41 21 -94 23 -133 2z m80 -34 c9 -14 -40 -34 -62
-26 -17 7 -17 8 1 22 23 16 52 18 61 4z"/>
<path d="M663 1457 c26 -353 270 -650 614 -749 113 -33 333 -33 446 0 344 99
588 396 614 749 4 45 2 73 -4 73 -6 0 -13 -37 -16 -83 -19 -277 -198 -539
-452 -662 -137 -67 -195 -80 -365 -80 -170 0 -228 13 -365 80 -254 123 -430
381 -451 660 -4 47 -11 85 -17 85 -6 0 -8 -28 -4 -73z"/>
<path d="M835 1234 c-21 -13 -43 -20 -47 -18 -5 3 -3 -6 3 -20 11 -23 13 -24
24 -9 12 16 40 9 30 -8 -4 -5 -2 -9 4 -9 5 0 13 5 16 10 3 6 1 10 -4 10 -17 0
-13 20 5 27 20 8 36 -17 22 -34 -7 -9 -7 -13 1 -13 21 0 23 27 4 57 l-18 29
-40 -22z"/>
<path d="M2102 1215 c-15 -33 -15 -32 4 -39 14 -5 15 -4 5 8 -19 23 4 28 43 9
20 -9 36 -21 37 -27 0 -6 5 0 10 13 5 13 8 25 7 25 -31 16 -81 36 -87 36 -4 0
-13 -11 -19 -25z"/>
<path d="M2051 1132 c-13 -20 -20 -34 -16 -30 4 4 26 -6 49 -21 l42 -29 22 34
c16 25 19 35 9 41 -17 11 -57 11 -57 0 0 -5 9 -7 20 -4 24 6 34 -7 23 -28 -7
-13 -14 -11 -46 11 -32 21 -36 28 -26 40 7 8 18 13 26 10 8 -3 11 -1 8 4 -12
19 -30 10 -54 -28z"/>
<path d="M907 1109 c-4 -13 -10 -18 -17 -14 -9 6 -9 10 1 16 9 6 1 8 -22 6
-24 -1 -35 -6 -32 -14 6 -17 23 -17 23 -1 0 8 6 6 17 -4 12 -13 13 -20 5 -30
-7 -10 -6 -18 4 -32 8 -11 14 -14 14 -8 0 7 11 30 25 52 30 47 30 50 6 50 -11
0 -21 -9 -24 -21z"/>
<path d="M2009 1080 c-17 -45 53 -109 81 -75 8 10 3 15 -27 22 -31 7 -39 14
-43 38 -4 19 -8 25 -11 15z"/>
<path d="M957 1033 c-27 -29 -34 -42 -26 -50 8 -8 19 -2 41 23 34 39 48 43 48
14 0 -11 -7 -20 -15 -20 -9 0 -21 -11 -27 -25 -9 -21 -9 -29 4 -41 14 -14 16
-12 21 15 4 17 13 31 21 31 26 0 26 30 -2 61 l-27 30 -38 -38z"/>
<path d="M1960 1025 c-10 -12 -10 -15 1 -15 7 0 27 -14 44 -30 28 -27 33 -29
45 -15 8 10 9 15 2 15 -6 0 -25 14 -42 30 -36 35 -34 34 -50 15z"/>
<path d="M1073 983 c4 -3 1 -13 -6 -21 -10 -13 -9 -14 1 -8 13 8 12 -7 -5 -66
-5 -21 10 -24 24 -5 28 35 21 107 -10 107 -6 0 -7 -3 -4 -7z"/>
<path d="M1910 980 c-9 -6 -10 -10 -3 -10 7 0 18 -12 25 -27 9 -19 22 -29 41
-31 34 -4 36 15 3 24 -15 3 -26 14 -28 27 -4 24 -17 30 -38 17z"/>
<path d="M1867 954 c-3 -3 9 -25 26 -50 23 -33 34 -41 43 -33 11 9 7 19 -18
50 -31 39 -39 44 -51 33z"/>
<path d="M1144 925 c-4 -8 -10 -12 -15 -9 -5 3 -6 -1 -4 -8 3 -8 -3 -23 -14
-34 -18 -20 -18 -21 -1 -32 14 -9 19 -7 23 6 3 9 15 31 27 48 18 28 18 32 5
38 -9 3 -18 -1 -21 -9z"/>
<path d="M1200 897 c0 -7 -8 -29 -18 -49 l-18 -35 30 -11 c41 -15 50 -16 54
-4 2 6 -6 8 -16 5 -29 -7 -34 11 -15 51 19 41 30 45 42 14 7 -19 8 -19 14 -4
5 13 -2 21 -28 32 -42 17 -45 17 -45 1z"/>
<path d="M1790 850 c0 -50 2 -58 16 -53 13 5 13 7 2 15 -10 7 -9 11 7 24 17
13 21 13 30 0 8 -10 16 -11 28 -5 15 9 11 15 -28 45 -25 18 -47 34 -50 34 -3
0 -5 -27 -5 -60z"/>
<path d="M1700 871 c0 -5 -3 -18 -6 -28 -4 -14 -4 -15 4 -4 7 10 12 3 17 -27
5 -31 10 -39 24 -35 16 4 16 8 2 54 -9 27 -22 49 -28 49 -7 0 -13 -4 -13 -9z"/>
<path d="M1289 821 c-14 -47 -14 -50 3 -54 10 -3 18 0 18 6 0 7 5 29 11 51 8
28 14 35 22 27 8 -8 7 -17 -2 -35 -15 -27 -1 -66 24 -66 12 0 12 5 4 27 -7 19
-7 29 0 31 21 7 11 42 -15 52 -42 16 -49 12 -65 -39z"/>
<path d="M1618 854 c-3 -3 0 -25 7 -49 8 -24 11 -46 8 -49 -4 -3 2 -6 12 -6
12 0 15 3 8 13 -6 6 -13 26 -17 42 -5 28 -5 29 9 10 45 -63 44 -62 45 -37 0
41 -52 97 -72 76z"/>
<path d="M1470 835 c-16 -20 -6 -43 25 -55 14 -5 25 -14 25 -20 0 -17 -38 -11
-49 8 -9 15 -10 14 -11 -6 0 -21 4 -23 38 -20 29 2 38 8 40 25 2 16 -5 26 -29
38 -22 12 -28 20 -20 28 7 7 16 5 31 -8 19 -18 20 -18 20 1 0 25 -51 31 -70 9z"/>
</g>
</svg>
