<?xml version="1.0" standalone="no"?>
<!DOCTYPE svg PUBLIC "-//W3C//DTD SVG 20010904//EN"
 "http://www.w3.org/TR/2001/REC-SVG-20010904/DTD/svg10.dtd">
<svg version="1.0" xmlns="http://www.w3.org/2000/svg"
 width="300.000000pt" height="300.000000pt" viewBox="0 0 300.000000 300.000000"
 preserveAspectRatio="xMidYMid meet">
<metadata>
Created by potrace 1.10, written by Peter Selinger 2001-2011
</metadata>
<g transform="translate(0.000000,300.000000) scale(0.100000,-0.100000)"
fill="#000000" stroke="none">
<path d="M1280 2721 c-242 -53 -427 -157 -599 -336 -217 -226 -322 -507 -308
-829 14 -344 175 -650 449 -856 214 -161 462 -238 733 -227 284 12 529 117
735 314 107 102 170 187 230 308 97 199 125 329 117 555 -4 125 -10 173 -31
250 -110 393 -413 696 -806 806 -131 36 -390 44 -520 15z m468 -15 l72 -18 0
-217 0 -218 -55 -6 c-34 -3 -77 -17 -112 -36 -52 -29 -57 -30 -69 -13 -6 9
-93 123 -192 252 -99 129 -178 238 -176 241 2 4 37 13 77 19 39 6 79 13 87 15
41 10 302 -4 368 -19z m-197 -571 c-20 -22 -43 -50 -51 -63 l-15 -23 -370 177
c-204 97 -374 181 -379 185 -5 4 8 22 29 41 96 84 217 156 344 204 l84 32 197
-257 197 -256 -36 -40z m457 474 c68 -34 126 -67 129 -74 4 -11 -143 -315
-152 -315 -1 0 -22 7 -45 15 -23 8 -58 15 -76 15 l-34 0 0 216 0 216 28 -6
c15 -4 82 -34 150 -67z m233 -152 c41 -35 91 -84 111 -109 l38 -46 -131 -96
c-71 -53 -134 -96 -139 -96 -5 0 -13 6 -17 14 -9 16 -78 72 -96 79 -8 3 16 60
68 160 44 86 83 157 86 157 3 0 39 -28 80 -63z m-1141 -237 c206 -100 376
-182 377 -184 2 -2 -4 -22 -12 -46 -8 -23 -15 -58 -15 -76 0 -19 -1 -34 -2
-34 -2 0 -45 15 -96 34 l-92 34 -33 -38 -33 -39 -389 -8 c-215 -5 -392 -7
-394 -6 -2 1 7 35 19 75 27 89 87 220 131 285 52 77 140 183 153 183 6 0 180
-81 386 -180z m1338 13 c51 -75 115 -202 109 -217 -3 -6 -78 -23 -173 -39
-195 -32 -184 -31 -184 -14 0 6 -13 39 -29 73 l-29 61 132 96 c72 54 132 97
133 97 1 0 20 -26 41 -57z m-468 -25 c77 -36 131 -86 170 -160 28 -53 35 -76
38 -144 7 -131 -38 -238 -132 -309 l-36 -27 -97 89 -98 90 -173 63 c-95 34
-175 60 -178 57 -3 -3 13 -11 35 -18 23 -7 39 -14 37 -16 -3 -3 -57 14 -120
36 -64 22 -116 39 -116 38 0 -2 54 -52 119 -111 l119 -108 33 -91 c73 -208 67
-195 97 -191 27 4 27 4 2 -5 -14 -4 -30 -6 -37 -3 -7 2 -26 47 -44 100 -18 54
-34 92 -36 85 -2 -6 3 -28 11 -48 20 -47 20 -45 -5 -45 -19 0 -20 5 -18 68 1
37 -1 76 -4 88 -4 11 -66 76 -138 144 l-131 123 -126 -124 c-70 -68 -100 -95
-67 -59 103 111 113 129 19 35 -82 -82 -95 -101 -149 -213 -32 -67 -61 -119
-65 -115 -3 5 -14 34 -25 67 -30 93 -67 85 -79 -17 -17 -143 -27 -177 -56
-192 l-27 -14 -16 58 c-17 59 -38 88 -56 76 -13 -7 -37 -91 -46 -156 -5 -42
-9 -47 -51 -67 -25 -12 -49 -20 -54 -17 -13 8 -54 144 -71 230 -15 80 -18 268
-6 366 l8 67 182 6 c100 3 278 8 396 10 l213 4 37 36 c21 20 40 34 43 30 4 -3
17 -7 30 -9 12 -2 50 -12 82 -24 75 -27 76 -27 76 7 0 36 27 128 48 161 25 41
84 101 123 126 94 61 238 70 339 23z m618 -295 c25 -92 42 -193 42 -247 0 -30
-3 -37 -15 -32 -8 3 -108 35 -222 71 -113 36 -208 66 -209 68 -2 1 2 23 7 47
6 25 9 61 6 80 l-4 35 156 26 c235 40 215 44 239 -48z m-1278 -140 c0 -52 -4
-83 -11 -83 -7 0 -9 29 -7 85 2 47 2 85 2 85 -1 0 -55 -58 -121 -129 l-119
-128 1 -64 c2 -52 1 -54 -2 -11 -2 29 -8 50 -12 48 -4 -3 -6 -28 -3 -56 4 -46
3 -50 -17 -50 -25 0 -25 2 -5 41 8 17 13 33 10 36 -9 9 -46 -75 -46 -105 0
-25 -3 -28 -35 -29 l-34 -1 61 122 c56 111 70 131 177 242 l116 121 23 -20
c19 -18 22 -30 22 -104z m128 77 c46 -16 94 -28 105 -25 12 2 36 -2 52 -10 17
-9 22 -13 12 -10 -50 14 -68 14 -33 0 22 -8 49 -13 60 -9 17 4 18 3 6 -6 -12
-9 -9 -10 15 -6 23 5 27 4 15 -5 -12 -8 -8 -9 15 -5 19 4 25 3 17 -2 -19 -13
13 -25 42 -17 17 5 18 4 6 -5 -12 -9 -9 -10 15 -6 24 5 27 4 15 -5 -12 -9 -11
-10 8 -6 12 3 20 2 17 -3 -3 -4 7 -11 22 -15 19 -4 23 -9 14 -14 -9 -6 -5 -10
14 -15 15 -4 25 -9 23 -12 -3 -2 -22 2 -44 10 -22 8 -31 15 -20 15 11 1 17 3
14 6 -3 4 -18 3 -34 -1 -25 -6 -21 -9 47 -33 41 -14 72 -30 69 -34 -3 -5 9
-15 25 -22 54 -24 11 -16 -75 14 -47 16 -78 30 -69 30 8 1 37 -6 63 -15 26 -9
49 -14 51 -12 2 2 -91 34 -207 71 -116 37 -212 66 -215 64 -2 -2 65 -26 148
-53 83 -26 146 -50 141 -52 -23 -7 -277 81 -300 104 -13 13 -28 24 -34 24 -6
0 -9 3 -6 6 3 3 75 -17 160 -45 85 -28 158 -51 163 -50 6 0 -46 20 -115 44
-159 55 -143 58 25 4 70 -22 129 -39 131 -36 2 2 -92 34 -209 71 -116 38 -219
74 -227 82 -19 19 -18 18 78 -16z m-98 -86 c0 -43 -4 -74 -10 -74 -6 0 -10 34
-10 81 0 51 4 78 10 74 6 -3 10 -40 10 -81z m175 28 c-6 -7 -114 28 -120 38
-3 5 24 -1 60 -13 35 -11 62 -23 60 -25z m-235 -37 c0 -37 -4 -65 -10 -65 -11
0 -14 113 -3 123 12 13 13 7 13 -58z m120 -12 c0 -19 4 -32 9 -29 5 3 7 16 3
29 -5 20 -4 21 11 8 14 -11 17 -34 17 -137 0 -76 -4 -124 -10 -124 -5 0 -10
24 -10 53 0 28 -3 75 -6 104 -6 49 -8 51 -35 48 l-29 -4 0 66 0 66 25 -23 c17
-16 25 -34 25 -57z m-150 -3 c0 -27 -4 -50 -10 -50 -11 0 -14 83 -3 93 12 12
13 8 13 -43z m-30 -15 c0 -19 -4 -35 -10 -35 -11 0 -14 53 -3 63 11 12 13 8
13 -28z m1293 -71 l117 -37 0 -52 c0 -74 -26 -217 -56 -309 l-26 -78 -59 58
c-56 55 -58 59 -65 123 -8 81 -19 107 -39 91 -8 -7 -17 -27 -21 -46 -3 -19 -7
-34 -8 -34 -2 0 -21 17 -43 38 -36 33 -41 44 -52 112 -7 41 -16 79 -21 84 -13
13 -28 -1 -35 -34 -4 -16 -10 -32 -14 -34 -4 -3 -27 14 -50 38 l-43 44 29 44
c16 23 34 55 40 70 l12 27 108 -35 c59 -18 161 -50 226 -70z m-1323 -49 c0
-77 -4 -125 -10 -125 -6 0 -10 46 -10 118 0 104 4 132 17 132 2 0 3 -56 3
-125z m569 45 c243 -77 244 -77 236 -91 -4 -5 0 -9 9 -9 8 0 16 4 18 8 2 4 17
17 33 29 l30 21 52 -47 53 -46 -14 -45 c-25 -84 -59 -295 -52 -324 4 -15 20
-35 36 -44 26 -15 29 -21 24 -47 -8 -41 -17 -47 -45 -36 -34 12 -59 95 -59
194 0 70 2 77 19 77 11 0 22 4 25 9 8 13 -53 213 -71 234 -16 17 -39 24 -29 8
5 -7 -259 70 -314 91 -41 17 22 6 75 -12 33 -11 63 -19 68 -17 9 3 -285 98
-300 96 -4 0 28 -13 72 -29 92 -33 88 -40 -6 -10 -36 11 -75 31 -88 45 -13 14
-17 23 -10 20 8 -2 115 -36 238 -75z m-289 -51 c0 -66 -4 -109 -10 -109 -6 0
-10 45 -10 116 0 74 4 113 10 109 6 -4 10 -53 10 -116z m-310 -9 c0 -67 -4
-110 -10 -110 -11 0 -14 202 -3 213 12 13 13 7 13 -103z m340 0 c0 -60 -4
-100 -10 -100 -6 0 -10 40 -10 100 0 60 4 100 10 100 6 0 10 -40 10 -100z
m-242 83 l-38 -4 0 -65 0 -65 94 3 c52 2 92 0 89 -4 -2 -5 -47 -8 -99 -8 l-94
0 0 75 0 75 43 -2 42 -1 -37 -4z m134 -22 c-6 -4 -10 -27 -9 -51 l2 -45 -73
-2 c-80 -2 -86 2 -80 56 3 31 3 31 26 15 l23 -16 -23 -27 c-12 -14 -5 -9 18
12 52 48 68 48 23 0 -18 -21 -25 -30 -13 -20 16 13 23 14 33 4 6 -6 24 -12 38
-12 l25 -1 -28 23 -28 22 24 28 c18 20 19 23 5 13 -18 -14 -19 -14 -7 2 8 9
20 14 28 11 8 -3 14 1 15 8 0 12 1 12 6 0 3 -7 1 -16 -5 -20z m-436 -117 c-36
-71 -65 -126 -65 -122 -1 11 123 258 127 254 2 -2 -26 -62 -62 -132z m374 120
c-27 -31 -49 -36 -75 -16 l-24 19 31 1 c16 0 33 3 36 6 3 3 14 6 25 6 16 0 17
-2 7 -16z m200 -86 c0 -46 -4 -78 -10 -78 -6 0 -10 37 -10 93 0 63 3 87 10 77
5 -8 10 -50 10 -92z m517 -57 c10 -6 13 -11 8 -11 -14 0 -472 127 -485 135 -5
3 -10 12 -10 19 0 9 72 -9 235 -60 129 -40 242 -77 252 -83z m-927 -35 c-7 -7
-10 16 -11 75 -1 70 -3 78 -9 44 -5 -22 -6 -59 -3 -82 5 -35 3 -43 -11 -43
-13 0 -16 12 -16 67 0 59 3 70 28 96 l27 28 3 -87 c2 -51 -1 -91 -8 -98z m665
85 c236 -65 285 -80 285 -91 0 -5 -108 20 -241 54 -184 47 -243 66 -251 80 -9
15 -8 18 3 14 8 -3 100 -29 204 -57z m58 -53 c149 -38 237 -66 237 -74 0 -7
-8 -10 -17 -8 -30 6 -386 94 -424 105 -21 5 -40 16 -43 24 -3 8 -2 15 2 15 4
0 114 -28 245 -62z m358 -44 c-42 -195 -55 -295 -44 -325 16 -41 5 -36 -12 5
-13 29 -12 45 0 117 17 98 66 301 71 296 2 -2 -5 -44 -15 -93z m-1321 -62 c44
-123 58 -189 44 -219 -5 -13 -10 0 -14 42 -4 33 -15 76 -24 95 -11 23 -14 26
-10 10 27 -111 28 -131 9 -166 -10 -19 -21 -34 -25 -34 -4 0 -22 10 -41 23
-49 33 -58 84 -35 201 31 155 27 147 47 101 24 -54 23 -32 0 41 -35 105 5 29
49 -94z m1212 -5 c4 -6 6 -13 4 -14 -2 -2 -111 23 -242 56 -170 42 -240 63
-242 74 -2 12 49 2 235 -45 131 -32 241 -65 245 -71z m-682 108 c0 -18 -20
-20 -21 -2 0 10 -2 10 -6 0 -2 -7 -11 -13 -18 -13 -7 0 -16 6 -18 13 -3 7 -6
5 -6 -5 -1 -25 -21 -23 -21 2 0 17 7 20 45 20 33 0 45 -4 45 -15z m835 -101
c4 -60 11 -133 16 -162 12 -58 -2 -122 -26 -122 -7 0 -16 -6 -19 -12 -3 -9
-11 -6 -25 11 -16 17 -21 37 -21 76 0 73 54 334 66 322 2 -2 6 -52 9 -113z
m-688 70 c-8 -8 -529 -35 -536 -29 -11 12 14 15 170 23 208 11 374 14 366 6z
m32 -102 c-1 -53 -5 -140 -9 -192 -6 -82 -7 -68 -8 103 -1 130 1 196 8 192 6
-4 10 -48 9 -103z m279 52 c127 -31 232 -61 232 -66 0 -5 -8 -7 -17 -4 -10 2
-112 26 -228 52 -115 25 -217 53 -225 60 -8 8 -10 14 -5 14 6 0 115 -25 243
-56z m-858 -67 c0 -57 2 -153 4 -213 l5 -109 -8 90 c-14 151 -20 335 -10 335
5 0 9 -47 9 -103z m550 94 c0 -4 -75 -11 -167 -15 -93 -3 -215 -8 -273 -11
-58 -3 -99 -2 -93 1 7 3 122 11 255 18 134 8 251 14 261 15 9 0 17 -3 17 -8z
m318 -61 c121 -27 224 -50 229 -50 14 -1 -71 -30 -87 -29 -8 0 -1 6 15 14 l30
15 -27 -5 c-16 -3 -40 -7 -55 -10 l-28 -6 30 16 c30 15 30 15 3 10 -15 -3 -40
-10 -55 -16 l-28 -12 35 -7 c19 -4 52 -11 73 -14 28 -5 37 -12 37 -26 0 -11
-1 -20 -3 -20 -16 0 -441 81 -445 85 -14 14 19 10 208 -26 113 -22 212 -38
220 -36 8 1 -79 20 -195 41 -115 21 -217 41 -225 44 -8 3 17 15 55 27 l70 22
-47 8 c-27 4 -48 11 -48 16 0 13 -2 13 238 -41z m-322 33 c-4 -4 -121 -13
-259 -19 l-252 -12 230 4 c127 3 242 7 258 10 16 3 27 1 27 -5 0 -6 -19 -12
-42 -12 -24 -1 -108 -5 -188 -9 l-145 -8 190 3 c105 1 170 -1 145 -5 l-45 -7
43 -1 c35 -2 42 -5 42 -22 0 -18 -6 -20 -52 -18 l-53 1 50 6 50 6 -60 9 c-33
5 -154 9 -270 9 -140 0 -185 2 -135 6 l75 7 -72 2 c-66 2 -73 4 -73 22 0 17 7
20 48 21 26 1 108 5 182 8 196 11 314 12 306 4z m768 -191 c-26 -123 -26 -179
0 -169 10 4 13 -8 12 -52 l-1 -58 -57 19 -58 20 0 44 c0 38 4 46 24 54 43 16
49 43 43 179 -3 70 -9 135 -13 146 -4 13 7 7 34 -20 l42 -40 -26 -123z m-1336
31 c2 -76 5 -157 8 -179 7 -47 5 -49 -53 -59 -42 -7 -42 -7 -52 32 -15 53 -14
58 13 71 48 22 51 122 6 226 l-18 43 47 2 47 1 2 -137z m1368 -9 c-14 -70 -26
-139 -26 -153 -1 -23 -2 -24 -11 -8 -7 12 -2 55 20 156 17 77 31 143 32 148 0
4 3 3 6 -4 2 -7 -7 -69 -21 -139z m-1665 -12 c21 -90 24 -149 10 -171 -7 -10
-8 -2 -4 25 4 33 -5 89 -42 254 l-6 25 11 -25 c6 -14 20 -62 31 -108z m-30 11
c22 -97 23 -210 2 -210 -7 0 -13 6 -13 14 0 7 -6 13 -14 13 -19 0 -27 25 -31
101 -4 76 16 191 31 176 3 -3 15 -45 25 -94z m448 83 c-11 -10 -89 -15 -89 -6
0 5 21 10 47 10 25 0 44 -2 42 -4z m179 -128 l-2 -133 -3 127 -4 127 -42 4
-42 4 48 1 47 2 -2 -132z m85 125 l-53 -4 0 -125 c0 -76 -4 -124 -10 -124 -6
0 -10 50 -10 130 l0 130 63 -2 62 -2 -52 -3z m75 -120 c-2 -131 -6 -116 -10
40 -2 48 0 87 5 87 4 0 6 -57 5 -127z m-278 108 c0 -5 21 -9 48 -8 l47 2 2
-120 c1 -81 -2 -114 -8 -102 -6 9 -7 22 -4 27 3 6 -2 23 -11 39 -15 26 -16 34
-5 58 8 15 15 44 16 63 l3 35 -20 -40 c-11 -22 -25 -43 -30 -46 -6 -4 -3 -19
7 -39 9 -17 15 -33 13 -35 -2 -2 -16 21 -32 51 -16 30 -31 53 -33 50 -3 -3 3
-18 13 -35 17 -29 17 -32 1 -66 -10 -20 -15 -41 -12 -46 4 -5 2 -17 -4 -26 -7
-13 -9 21 -8 110 1 70 -1 127 -5 127 -5 0 -8 -59 -8 -132 0 -72 -2 -129 -4
-127 -2 2 -7 64 -10 137 l-7 132 25 0 c14 0 26 -4 26 -9z m1230 -114 c0 -113
-2 -123 -21 -135 -12 -7 -24 -10 -27 -7 -11 11 -7 97 7 151 20 77 32 114 37
114 2 0 4 -55 4 -123z m-1290 103 c0 -5 -21 -10 -47 -9 -39 1 -43 2 -23 9 36
12 70 12 70 0z m300 5 c0 -4 -7 -20 -16 -36 -8 -17 -13 -33 -10 -37 3 -3 6 1
6 8 0 7 2 11 5 8 3 -3 2 -13 -1 -23 -6 -14 -11 -11 -30 21 -27 44 -32 39 -9
-9 14 -29 14 -30 0 -13 -8 11 -15 15 -15 9 0 -7 5 -15 11 -19 6 -3 8 -16 4
-28 -3 -11 -8 -37 -10 -56 l-3 -35 18 34 18 35 16 -32 c9 -18 21 -30 26 -27 6
3 7 -1 4 -8 -3 -9 -22 -17 -45 -19 -45 -4 -42 -14 -44 130 l-1 102 38 0 c21 0
38 -2 38 -5z m11 -23 c-14 -26 -14 -35 -1 -27 6 4 10 -18 10 -59 0 -36 -4 -67
-10 -71 -5 -3 -19 13 -30 36 -12 22 -17 38 -11 35 13 -8 34 31 27 50 -5 14 14
68 21 60 3 -2 0 -13 -6 -24z m428 -17 c107 -19 196 -37 199 -39 20 -21 -34
-17 -225 17 -168 30 -223 44 -223 54 0 11 8 13 28 9 15 -4 114 -22 221 -41z
m-309 25 c-36 -12 -80 -12 -80 0 0 6 24 10 53 9 41 -1 47 -3 27 -9z m-800 -59
c0 -60 32 -112 78 -126 31 -9 32 -11 32 -62 0 -42 -4 -55 -17 -59 -10 -3 -43
-15 -73 -27 -30 -12 -59 -22 -65 -23 -18 -3 -11 82 8 104 22 24 24 85 6 167
-11 48 -10 58 2 66 25 16 29 10 29 -40z m820 39 c0 -6 -23 -9 -52 -9 l-53 2
40 7 c60 11 65 11 65 0z m280 -40 c194 -33 222 -40 204 -47 -6 -2 -106 12
-222 32 -116 19 -213 35 -216 35 -3 0 -6 5 -6 11 0 7 11 9 28 6 15 -3 110 -20
212 -37z m-730 10 c0 -17 -6 -20 -47 -18 l-48 1 45 7 45 7 -43 1 c-54 2 -46
22 9 22 32 0 39 -3 39 -20z m1400 -151 c-45 -89 -110 -183 -120 -172 -9 9 -13
34 -11 80 1 21 7 34 19 38 33 10 43 49 36 143 l-6 87 57 -56 57 -56 -32 -64z
m-990 151 l-45 -7 43 -1 c59 -3 53 -22 -8 -22 -43 0 -50 3 -50 20 0 18 6 20
53 18 l52 -1 -45 -7z m298 -36 c119 -20 222 -40 227 -46 7 -6 -6 -7 -35 -3
-350 50 -414 61 -418 73 -5 16 -24 18 226 -24z m-718 -4 c-36 -12 -70 -12 -70
0 0 6 21 10 48 9 38 -1 42 -2 22 -9z m726 -30 c194 -28 224 -34 213 -44 -2 -2
-96 9 -209 25 -113 15 -213 28 -222 29 -21 0 -25 20 -4 20 7 0 107 -14 222
-30z m-1253 -41 c5 -62 33 -109 64 -109 17 0 18 -106 1 -116 -14 -9 -56 41
-108 133 -57 99 -58 104 -13 130 21 12 41 22 44 23 3 0 9 -27 12 -61z m542 51
c4 -6 -12 -10 -42 -9 -43 1 -45 2 -18 9 44 11 53 11 60 0z m420 -10 c-44 -11
-75 -11 -75 0 0 6 23 9 53 9 44 -1 48 -2 22 -9z m264 -25 c224 -30 241 -33
241 -43 0 -4 -96 5 -212 20 -117 15 -219 27 -225 28 -13 0 -19 20 -7 20 4 0
95 -11 203 -25z m-719 5 l-45 -7 43 -1 c35 -2 42 -5 42 -22 0 -17 -6 -20 -47
-18 l-48 1 45 7 45 7 -42 1 c-36 2 -43 5 -43 22 0 17 6 20 48 18 l47 -1 -45
-7z m146 -14 c28 -4 29 -62 0 -70 -46 -12 -55 -8 -51 27 4 44 16 72 25 57 4
-6 15 -13 26 -14z m334 14 c0 -6 -23 -9 -52 -9 -45 1 -49 2 -23 9 44 11 75 11
75 0z m280 -41 c168 -20 213 -30 199 -43 -3 -3 -101 8 -219 25 -118 16 -218
29 -222 29 -5 0 -8 5 -8 11 0 7 12 9 33 6 17 -4 115 -16 217 -28z m-281 17
c-11 -9 -99 -15 -99 -6 0 6 23 10 52 10 28 0 49 -2 47 -4z m1 -26 c0 -5 -24
-10 -52 -9 -39 0 -48 3 -33 9 28 12 85 12 85 0z m256 -20 c119 -16 219 -32
222 -35 12 -12 -7 -12 -78 0 -41 7 -127 18 -190 24 -143 14 -180 21 -180 32 0
11 -26 14 226 -21z m283 -52 c1 -5 -6 -8 -14 -8 -11 0 -15 11 -14 43 l1 42 13
-35 c7 -19 14 -38 14 -42z m-1014 52 l-40 -7 38 -2 c53 -2 46 -21 -8 -21 -38
0 -45 3 -45 20 0 17 6 20 48 19 l47 -2 -40 -7z m310 -51 c-76 -84 -197 -294
-258 -446 -12 -31 -21 -41 -32 -37 -8 4 -15 10 -15 15 0 5 -9 9 -20 9 -11 0
-20 5 -20 10 0 6 -7 10 -15 10 -24 0 -167 89 -225 140 -14 12 -38 29 -53 37
-35 18 -32 21 71 104 86 69 170 124 228 150 38 17 236 45 338 48 l38 1 -37
-41z m493 16 c181 -26 375 -80 474 -131 l31 -16 -31 -31 -31 -31 -88 43 c-48
24 -116 54 -150 67 -71 27 -253 74 -280 73 -10 0 -2 -5 17 -10 163 -42 250
-70 330 -107 118 -53 140 -65 140 -72 0 -23 -230 -200 -260 -200 -5 0 -10 -4
-10 -9 0 -5 -26 -19 -57 -31 -32 -11 -67 -25 -78 -31 -11 -5 -72 -22 -135 -38
-96 -24 -136 -29 -245 -29 -71 -1 -148 3 -170 8 -22 5 -77 17 -122 26 -46 10
-83 21 -83 26 0 4 19 52 43 106 54 123 123 238 200 338 l60 77 171 -6 c94 -4
217 -13 274 -22z m-923 -61 c-33 -21 -65 -37 -72 -37 -7 0 -10 -4 -8 -8 3 -4
-6 -14 -18 -22 -13 -8 -49 -38 -80 -67 -55 -50 -59 -52 -72 -34 -8 11 -13 23
-12 28 2 5 36 26 77 48 90 47 54 40 -44 -9 -65 -33 -69 -33 -87 -17 -19 17
-19 17 0 30 42 30 309 121 361 123 8 1 -12 -15 -45 -35z"/>
<path d="M1374 1751 c2 -44 16 -50 16 -8 0 21 -4 37 -9 37 -5 0 -8 -13 -7 -29z"/>
<path d="M1915 1580 c28 -10 57 -18 65 -18 8 0 -7 8 -35 18 -27 10 -57 18 -65
18 -8 0 8 -8 35 -18z"/>
<path d="M1690 1381 l-55 -17 44 -7 c31 -6 59 -3 93 9 27 9 51 14 54 12 2 -3
-15 -11 -38 -18 -24 -8 -36 -15 -27 -17 9 -2 38 5 64 15 l49 19 -35 7 c-21 4
-55 0 -85 -9 -68 -20 -80 -17 -19 5 64 23 28 25 -45 1z"/>
<path d="M1840 1352 c-25 -9 -38 -18 -29 -19 9 -2 38 5 65 16 59 24 28 26 -36
3z"/>
<path d="M1903 1347 c-17 -7 -35 -15 -39 -19 -15 -16 32 -7 66 12 39 21 23 25
-27 7z"/>
<path d="M1651 1046 c2 -2 36 -6 74 -9 54 -4 61 -4 30 3 -40 9 -112 13 -104 6z"/>
<path d="M2377 777 c-13 -9 -18 -23 -15 -42 3 -31 18 -36 73 -24 13 3 20 -1
20 -11 0 -8 -10 -16 -22 -18 -13 -2 -23 -8 -23 -13 0 -16 46 -10 63 9 35 39 9
82 -36 61 -14 -6 -33 -9 -43 -5 -21 8 -9 21 19 21 28 0 29 29 2 33 -11 1 -28
-3 -38 -11z"/>
<path d="M575 770 c-4 -6 -5 -25 -3 -43 3 -37 -14 -50 -22 -16 -8 33 -30 36
-30 5 0 -31 34 -69 58 -64 13 3 17 14 17 45 0 44 17 74 30 53 4 -6 2 -17 -5
-25 -7 -9 -8 -15 0 -20 27 -16 43 38 18 63 -15 15 -54 16 -63 2z"/>
<path d="M642 677 c-36 -37 -41 -66 -14 -90 28 -25 44 -21 87 23 31 31 36 43
27 52 -10 10 -19 4 -43 -25 -17 -20 -37 -37 -45 -37 -25 0 -15 34 17 61 19 15
29 31 25 37 -11 18 -19 15 -54 -21z"/>
<path d="M2285 684 l-24 -26 42 -49 c23 -27 45 -49 49 -49 17 0 18 23 1 42
-18 21 -18 21 25 14 34 -5 42 -3 42 9 0 10 -10 15 -31 15 -26 0 -30 3 -26 19
13 51 -39 67 -78 25z m55 -24 c0 -26 -15 -33 -30 -15 -10 12 -10 18 0 30 15
18 30 11 30 -15z"/>
<path d="M2212 617 l-22 -23 36 -52 37 -52 28 21 c35 25 42 36 29 44 -6 4 -20
-1 -30 -10 -24 -22 -38 -1 -16 24 21 23 8 36 -15 15 -17 -16 -19 -15 -25 1 -5
11 -1 21 10 27 9 5 14 13 11 19 -9 14 -20 11 -43 -14z"/>
<path d="M726 583 c-20 -25 -36 -50 -36 -54 0 -18 22 -20 34 -3 9 11 20 15 36
11 26 -7 55 5 63 27 7 17 -28 66 -47 66 -8 0 -30 -21 -50 -47z m70 -12 c-4 -6
-17 -11 -28 -11 -21 0 -21 1 -3 20 19 21 44 13 31 -9z"/>
<path d="M2141 571 c-10 -6 -11 -13 -2 -29 6 -11 11 -28 11 -37 0 -12 -6 -9
-22 10 -21 23 -25 24 -42 12 -18 -13 -18 -15 10 -65 16 -29 35 -52 42 -52 19
0 14 18 -13 54 -36 47 -31 56 10 16 41 -40 53 -34 37 17 -16 51 -7 53 18 4 20
-41 33 -50 45 -31 6 10 -61 110 -73 110 -4 0 -13 -4 -21 -9z"/>
<path d="M812 519 c-25 -39 -31 -54 -22 -63 8 -8 15 -7 24 7 7 9 26 17 43 17
51 0 70 41 35 73 -29 27 -45 20 -80 -34z m68 1 c0 -13 -7 -20 -20 -20 -18 0
-19 3 -10 20 6 11 15 20 20 20 6 0 10 -9 10 -20z"/>
<path d="M911 484 c-31 -39 -35 -63 -15 -85 23 -26 50 -24 79 6 27 26 33 73
13 93 -20 20 -55 14 -77 -14z m62 -8 c7 -18 -30 -79 -46 -73 -20 6 -19 32 3
60 24 30 35 34 43 13z"/>
<path d="M1998 494 c-33 -17 -32 -12 -12 -60 9 -22 20 -49 25 -61 5 -15 14
-21 23 -17 12 5 13 10 5 26 -15 28 -6 32 30 14 21 -11 32 -13 37 -5 7 12 -12
29 -34 29 -9 0 -11 10 -7 34 6 28 3 36 -13 45 -25 13 -21 14 -54 -5z m45 -20
c3 -4 1 -16 -5 -27 -10 -20 -11 -20 -24 -2 -7 10 -11 22 -8 26 6 10 28 12 37
3z"/>
<path d="M1008 411 c-21 -49 -23 -61 -12 -65 9 -4 19 4 25 22 l11 27 13 -35
c6 -19 20 -37 29 -38 16 -3 16 -2 2 26 -14 28 -14 30 9 40 31 14 34 57 6 72
-40 21 -55 12 -83 -49z m75 15 c3 -11 -30 -32 -38 -25 -3 4 -3 14 1 23 7 17
33 19 37 2z"/>
<path d="M1890 375 c0 -41 2 -75 4 -75 19 0 33 14 29 29 -5 20 29 40 35 22 4
-11 42 -16 42 -6 0 18 -75 105 -91 105 -17 0 -19 -8 -19 -75z"/>
<path d="M1120 431 c0 -6 6 -14 14 -17 12 -5 12 -10 0 -39 -18 -43 -18 -75 -1
-75 8 0 19 22 26 54 9 41 16 53 27 49 8 -3 14 1 14 11 0 9 -8 16 -17 16 -10 0
-28 3 -40 6 -14 4 -23 2 -23 -5z"/>
<path d="M1812 419 c-16 -6 -22 -15 -18 -26 3 -10 10 -37 16 -60 7 -27 16 -43
26 -43 12 0 14 7 9 29 -5 23 -2 29 15 34 12 3 19 10 15 16 -4 8 -12 8 -25 1
-14 -7 -19 -5 -23 9 -3 14 2 21 20 25 13 4 21 11 18 16 -7 12 -22 12 -53 -1z"/>
<path d="M1253 343 c-6 -32 -9 -61 -6 -65 6 -12 73 -10 73 2 0 6 -9 10 -20 10
-23 0 -26 24 -11 78 8 27 7 32 -8 32 -14 0 -20 -13 -28 -57z"/>
<path d="M1350 370 c-23 -23 -28 -88 -8 -108 19 -19 55 -14 72 10 31 44 12
118 -30 118 -8 0 -23 -9 -34 -20z m50 -44 c0 -33 -20 -62 -33 -49 -11 11 -8
68 5 81 17 17 28 5 28 -32z"/>
<path d="M1664 353 c16 -94 17 -95 39 -89 12 3 28 6 35 6 6 0 12 7 12 16 0 12
-6 15 -24 10 -22 -5 -24 -2 -30 44 -5 36 -11 50 -22 50 -13 0 -15 -7 -10 -37z"/>
<path d="M1456 351 c-23 -44 -20 -78 8 -96 26 -18 52 -11 67 16 11 22 -9 27
-28 8 -27 -27 -44 22 -22 64 l12 21 8 -22 c12 -31 31 -27 27 6 -2 21 -9 28
-30 30 -21 3 -30 -3 -42 -27z"/>
<path d="M1559 310 c-15 -67 -15 -70 3 -70 11 0 18 7 18 20 0 13 7 20 20 20
11 0 20 -4 20 -10 0 -5 8 -10 19 -10 17 0 17 2 -3 60 -16 46 -26 60 -41 60
-17 0 -23 -12 -36 -70z"/>
</g>
</svg>
